<svg width="199" height="40" viewBox="0 0 199 40" fill="none" xmlns="http://www.w3.org/2000/svg">
<path d="M40.2326 40H0V0H40.2326V40Z" fill="black"/>
<path d="M27.9246 12.16C26.8754 12.04 25.8666 11.96 24.8174 11.88C23.7682 11.8 22.7594 11.76 21.7102 11.76C21.1856 11.76 20.661 11.72 20.096 11.72C19.6118 11.72 19.0872 11.72 18.6029 11.76C17.5537 11.76 16.5449 11.84 15.4957 11.88C14.4465 11.96 13.4377 12.04 12.3885 12.16C11.3393 12.28 10.3304 12.4 9.28125 12.56V15.68C10.3304 15.52 11.3393 15.36 12.3885 15.24C13.3973 15.12 14.4465 15.04 15.4957 14.96C16.5449 14.88 17.5537 14.84 18.6029 14.84C19.0872 14.84 19.6118 14.84 20.096 14.84C20.6206 14.84 21.1452 14.84 21.7102 14.84C22.7594 14.88 23.7682 14.92 24.8174 14.96C25.8666 15.04 26.8754 15.12 27.9246 15.24C28.9738 15.36 29.9827 15.52 31.0319 15.68V12.56C30.023 12.4 28.9738 12.28 27.9246 12.16Z" fill="white"/>
<path d="M27.9246 18.48C26.9158 18.36 25.8666 18.24 24.8174 18.2C23.7682 18.12 22.7594 18.08 21.7102 18.04C21.1856 18.04 20.661 18 20.096 18C19.6118 18 19.0872 18 18.6029 18C17.5537 18.04 16.5449 18.08 15.4957 18.16C14.4465 18.24 13.4377 18.32 12.3885 18.44C11.3393 18.56 10.2901 18.72 9.28125 18.88V22V28.24H12.3885V21.56C13.4377 21.44 14.4465 21.32 15.4957 21.24V28.24H18.5626V21.12C19.0468 21.12 19.5714 21.08 20.0557 21.08C20.5803 21.08 21.1049 21.08 21.6698 21.12V28.28H24.7771V21.24C25.8263 21.32 26.8351 21.4 27.8843 21.56V28.24H30.9915V22.04V18.92C30.023 18.76 28.9738 18.6 27.9246 18.48Z" fill="white"/>
<path d="M49.2314 10.64H56.7372C60.0059 10.64 62.5482 12.68 62.5482 16.08C62.5482 19.44 60.0059 21.48 56.7372 21.48H53.5089V27.52H49.2314V10.64ZM53.5493 13.8V18.32H56.0109C57.2618 18.32 58.311 17.52 58.311 16.08C58.311 14.6 57.2618 13.8 56.0109 13.8H53.5493Z" fill="black"/>
<path d="M64.3232 15.88H68.52V16.6C69.3271 15.96 70.2552 15.64 71.5062 15.64C72.5957 15.64 73.4432 15.92 74.0081 16.52L71.5869 19.72C71.3044 19.44 70.8605 19.24 70.2552 19.24C69.1657 19.24 68.52 19.88 68.52 21.16V27.48H64.3232V15.88Z" fill="black"/>
<path d="M73.6855 21.68C73.6855 18.24 76.4699 15.6 80.2632 15.6C84.0564 15.6 86.8408 18.2 86.8408 21.68C86.8408 25.2 84.0564 27.8 80.3035 27.8C76.5103 27.8 73.6855 25.16 73.6855 21.68ZM82.5634 21.68C82.5634 20.24 81.6352 19.28 80.2632 19.28C78.8912 19.28 77.963 20.24 77.963 21.68C77.963 23.08 78.8912 24.08 80.2632 24.08C81.6352 24.12 82.5634 23.12 82.5634 21.68Z" fill="black"/>
<path d="M87.7285 21.72C87.7285 18.2 90.069 15.64 93.4991 15.64C94.5483 15.64 95.5168 15.92 96.3238 16.44V10.16H100.521V27.52H96.4046V26.84C95.5975 27.4 94.5886 27.76 93.5394 27.76C90.1094 27.76 87.7285 25.24 87.7285 21.72ZM96.566 21.68C96.566 20.28 95.6378 19.32 94.2658 19.32C92.9341 19.32 91.9656 20.32 91.9656 21.68C91.9656 23.08 92.9341 24.08 94.2658 24.08C95.6378 24.08 96.566 23.12 96.566 21.68Z" fill="black"/>
<path d="M102.66 22.64V15.88H106.857V22.6C106.857 23.56 107.462 24.16 108.39 24.16C109.278 24.16 109.924 23.56 109.924 22.6V15.88H114.121V22.6C114.121 25.68 111.78 27.76 108.431 27.76C105.041 27.8 102.66 25.64 102.66 22.64Z" fill="black"/>
<path d="M115.371 21.72C115.371 18.2 118.236 15.6 122.029 15.6C123.845 15.6 125.379 16.2 126.589 17.4L123.966 20C123.482 19.52 122.877 19.28 122.029 19.28C120.657 19.28 119.608 20.24 119.608 21.68C119.608 23.12 120.657 24.08 122.029 24.08C122.958 24.08 123.563 23.76 124.007 23.24L126.67 25.84C125.338 27.12 123.886 27.76 121.949 27.76C118.236 27.8 115.371 25.24 115.371 21.72Z" fill="black"/>
<path d="M129.616 19.36H127.033V15.92H129.616V11.12H133.813V15.92H136.395V19.36H133.813V27.56H129.616V19.36Z" fill="black"/>
<path d="M143.82 12.16H145.071L151.366 27.52H149.591L147.977 23.52H140.834L139.22 27.52H137.444L143.82 12.16ZM147.371 22.08L144.426 14.76L141.439 22.08H147.371Z" fill="black"/>
<path d="M153.788 17.04H155.362V18.44C156.008 17.4 157.016 16.84 158.388 16.84C159.438 16.84 160.285 17.2 161.052 18L160.003 19.08C159.478 18.56 158.913 18.28 158.106 18.28C156.492 18.28 155.362 19.36 155.362 21.4V27.52H153.788V17.04Z" fill="black"/>
<path d="M161.656 22.28C161.656 19.2 164.037 16.84 167.104 16.84C169.969 16.84 172.067 18.96 172.067 21.92C172.067 22.16 172.027 22.44 171.946 22.88H163.27C163.513 24.96 165.046 26.28 167.265 26.28C168.557 26.28 169.646 25.8 170.413 24.88L171.422 25.92C170.413 27.08 168.88 27.76 167.225 27.76C164.037 27.76 161.656 25.4 161.656 22.28ZM163.27 21.52H170.494C170.332 19.52 169.081 18.28 167.064 18.28C164.965 18.28 163.553 19.56 163.27 21.52Z" fill="black"/>
<path d="M174.449 17.04H176.022V18.6C176.749 17.52 178.04 16.84 179.573 16.84C182.035 16.84 183.73 18.8 183.73 21.12V27.56H182.116V21.36C182.116 19.52 180.905 18.24 179.13 18.24C177.314 18.24 175.982 19.52 175.982 21.32V27.52H174.408V17.04H174.449Z" fill="black"/>
<path d="M186.03 22.32C186.03 19.2 188.29 16.84 191.276 16.84C192.931 16.84 194.303 17.56 195.11 18.8V17.04H196.684V27.52H195.11V25.76C194.343 27 192.971 27.72 191.317 27.72C188.33 27.76 186.03 25.4 186.03 22.32ZM195.191 22.28C195.191 19.88 193.697 18.28 191.518 18.28C189.259 18.28 187.644 19.96 187.644 22.28C187.644 24.6 189.259 26.24 191.559 26.24C193.738 26.28 195.191 24.68 195.191 22.28Z" fill="black"/>
</svg>
